<mxfile host="app.diagrams.net" agent="Mozilla/5.0 (Windows NT 10.0; Win64; x64; rv:129.0) Gecko/20100101 Firefox/129.0" version="24.7.6">
  <diagram name="Page-1" id="L-QENt435MVAKbxg2Pn8">
    <mxGraphModel dx="1195" dy="622" grid="1" gridSize="10" guides="1" tooltips="1" connect="1" arrows="1" fold="1" page="1" pageScale="1" pageWidth="850" pageHeight="1100" math="0" shadow="0">
      <root>
        <mxCell id="0" />
        <mxCell id="1" parent="0" />
        <mxCell id="grHH_3dc-q_dSVZ70AZM-1" value="Start" style="rounded=0;whiteSpace=wrap;html=1;" vertex="1" parent="1">
          <mxGeometry x="310" y="640" width="130" height="100" as="geometry" />
        </mxCell>
        <mxCell id="grHH_3dc-q_dSVZ70AZM-2" value="&lt;div&gt;Dinning&lt;/div&gt;&lt;div&gt;&lt;br&gt;&lt;/div&gt;&lt;b&gt;Vacuum floor&lt;/b&gt;" style="rounded=0;whiteSpace=wrap;html=1;" vertex="1" parent="1">
          <mxGeometry x="170" y="320" width="90" height="210" as="geometry" />
        </mxCell>
        <mxCell id="grHH_3dc-q_dSVZ70AZM-3" value="&lt;div&gt;Living&lt;/div&gt;&lt;div&gt;&lt;br&gt;&lt;/div&gt;&lt;b&gt;Dust TV stand&lt;/b&gt;" style="rounded=0;whiteSpace=wrap;html=1;" vertex="1" parent="1">
          <mxGeometry x="330" y="320" width="110" height="250" as="geometry" />
        </mxCell>
        <mxCell id="grHH_3dc-q_dSVZ70AZM-4" value="&lt;div&gt;Balcony&lt;/div&gt;&lt;div&gt;&lt;br&gt;&lt;/div&gt;&lt;div&gt;&lt;b&gt;Wife&lt;/b&gt;&lt;br&gt;&lt;/div&gt;" style="rounded=0;whiteSpace=wrap;html=1;" vertex="1" parent="1">
          <mxGeometry x="170" y="210" width="270" height="60" as="geometry" />
        </mxCell>
        <mxCell id="grHH_3dc-q_dSVZ70AZM-17" style="edgeStyle=orthogonalEdgeStyle;rounded=0;orthogonalLoop=1;jettySize=auto;html=1;exitX=1;exitY=0.5;exitDx=0;exitDy=0;entryX=0;entryY=0.25;entryDx=0;entryDy=0;" edge="1" parent="1" source="grHH_3dc-q_dSVZ70AZM-5" target="grHH_3dc-q_dSVZ70AZM-1">
          <mxGeometry relative="1" as="geometry" />
        </mxCell>
        <mxCell id="grHH_3dc-q_dSVZ70AZM-5" value="&lt;div&gt;kitchen&lt;/div&gt;&lt;div&gt;&lt;br&gt;&lt;/div&gt;&lt;div&gt;&lt;br&gt;&lt;/div&gt;&lt;div&gt;&lt;b&gt;List&lt;/b&gt;&lt;/div&gt;&lt;div&gt;&lt;b&gt;&lt;br&gt;&lt;/b&gt;&lt;/div&gt;&lt;div&gt;&lt;b&gt;Turn oven on (last step)&lt;br&gt;&lt;/b&gt;&lt;/div&gt;&lt;div&gt;&lt;b&gt;&lt;br&gt;&lt;/b&gt;&lt;/div&gt;" style="rounded=0;whiteSpace=wrap;html=1;" vertex="1" parent="1">
          <mxGeometry x="170" y="590" width="70" height="150" as="geometry" />
        </mxCell>
        <mxCell id="grHH_3dc-q_dSVZ70AZM-29" style="edgeStyle=orthogonalEdgeStyle;rounded=0;orthogonalLoop=1;jettySize=auto;html=1;exitX=0.75;exitY=1;exitDx=0;exitDy=0;entryX=0.75;entryY=0;entryDx=0;entryDy=0;" edge="1" parent="1" source="grHH_3dc-q_dSVZ70AZM-6" target="grHH_3dc-q_dSVZ70AZM-7">
          <mxGeometry relative="1" as="geometry" />
        </mxCell>
        <mxCell id="grHH_3dc-q_dSVZ70AZM-6" value="&lt;div&gt;Bedroom&lt;/div&gt;&lt;div&gt;&lt;br&gt;&lt;/div&gt;&lt;div&gt;&lt;b&gt;Make bed&lt;/b&gt;&lt;br&gt;&lt;/div&gt;" style="rounded=0;whiteSpace=wrap;html=1;" vertex="1" parent="1">
          <mxGeometry x="490" y="210" width="90" height="210" as="geometry" />
        </mxCell>
        <mxCell id="grHH_3dc-q_dSVZ70AZM-23" style="edgeStyle=orthogonalEdgeStyle;rounded=0;orthogonalLoop=1;jettySize=auto;html=1;exitX=0.25;exitY=0;exitDx=0;exitDy=0;entryX=0.25;entryY=1;entryDx=0;entryDy=0;" edge="1" parent="1" source="grHH_3dc-q_dSVZ70AZM-8" target="grHH_3dc-q_dSVZ70AZM-7">
          <mxGeometry relative="1" as="geometry" />
        </mxCell>
        <mxCell id="grHH_3dc-q_dSVZ70AZM-28" style="edgeStyle=orthogonalEdgeStyle;rounded=0;orthogonalLoop=1;jettySize=auto;html=1;exitX=0.25;exitY=0;exitDx=0;exitDy=0;entryX=0.25;entryY=1;entryDx=0;entryDy=0;" edge="1" parent="1" source="grHH_3dc-q_dSVZ70AZM-7" target="grHH_3dc-q_dSVZ70AZM-6">
          <mxGeometry relative="1" as="geometry" />
        </mxCell>
        <mxCell id="grHH_3dc-q_dSVZ70AZM-7" value="&lt;div&gt;Bathroom&lt;/div&gt;&lt;div&gt;&lt;br&gt;&lt;/div&gt;&lt;div&gt;&lt;b&gt;Clean tub&lt;/b&gt;&lt;br&gt;&lt;/div&gt;" style="rounded=0;whiteSpace=wrap;html=1;" vertex="1" parent="1">
          <mxGeometry x="490" y="470" width="90" height="100" as="geometry" />
        </mxCell>
        <mxCell id="grHH_3dc-q_dSVZ70AZM-24" style="edgeStyle=orthogonalEdgeStyle;rounded=0;orthogonalLoop=1;jettySize=auto;html=1;exitX=0.75;exitY=1;exitDx=0;exitDy=0;entryX=0.75;entryY=0;entryDx=0;entryDy=0;" edge="1" parent="1" source="grHH_3dc-q_dSVZ70AZM-7" target="grHH_3dc-q_dSVZ70AZM-8">
          <mxGeometry relative="1" as="geometry" />
        </mxCell>
        <mxCell id="grHH_3dc-q_dSVZ70AZM-8" value="&lt;div&gt;Closet&lt;/div&gt;&lt;div&gt;&lt;br&gt;&lt;/div&gt;&lt;div&gt;&lt;b&gt;Fold Clothes&lt;/b&gt;&lt;br&gt;&lt;/div&gt;" style="rounded=0;whiteSpace=wrap;html=1;" vertex="1" parent="1">
          <mxGeometry x="490" y="640" width="90" height="100" as="geometry" />
        </mxCell>
        <mxCell id="grHH_3dc-q_dSVZ70AZM-9" style="edgeStyle=orthogonalEdgeStyle;rounded=0;orthogonalLoop=1;jettySize=auto;html=1;exitX=0.25;exitY=0;exitDx=0;exitDy=0;entryX=0.194;entryY=1.01;entryDx=0;entryDy=0;entryPerimeter=0;" edge="1" parent="1" source="grHH_3dc-q_dSVZ70AZM-5" target="grHH_3dc-q_dSVZ70AZM-2">
          <mxGeometry relative="1" as="geometry" />
        </mxCell>
        <mxCell id="grHH_3dc-q_dSVZ70AZM-11" style="edgeStyle=orthogonalEdgeStyle;rounded=0;orthogonalLoop=1;jettySize=auto;html=1;exitX=0;exitY=0.75;exitDx=0;exitDy=0;entryX=1.024;entryY=0.837;entryDx=0;entryDy=0;entryPerimeter=0;" edge="1" parent="1" source="grHH_3dc-q_dSVZ70AZM-1" target="grHH_3dc-q_dSVZ70AZM-5">
          <mxGeometry relative="1" as="geometry" />
        </mxCell>
        <mxCell id="grHH_3dc-q_dSVZ70AZM-16" style="edgeStyle=orthogonalEdgeStyle;rounded=0;orthogonalLoop=1;jettySize=auto;html=1;exitX=0.5;exitY=1;exitDx=0;exitDy=0;entryX=0.631;entryY=0.003;entryDx=0;entryDy=0;entryPerimeter=0;" edge="1" parent="1" source="grHH_3dc-q_dSVZ70AZM-2" target="grHH_3dc-q_dSVZ70AZM-5">
          <mxGeometry relative="1" as="geometry" />
        </mxCell>
        <mxCell id="grHH_3dc-q_dSVZ70AZM-19" style="edgeStyle=orthogonalEdgeStyle;rounded=0;orthogonalLoop=1;jettySize=auto;html=1;exitX=0.697;exitY=1.012;exitDx=0;exitDy=0;entryX=0.75;entryY=0;entryDx=0;entryDy=0;exitPerimeter=0;" edge="1" parent="1" source="grHH_3dc-q_dSVZ70AZM-3" target="grHH_3dc-q_dSVZ70AZM-1">
          <mxGeometry relative="1" as="geometry" />
        </mxCell>
        <mxCell id="grHH_3dc-q_dSVZ70AZM-20" style="edgeStyle=orthogonalEdgeStyle;rounded=0;orthogonalLoop=1;jettySize=auto;html=1;exitX=0.359;exitY=-0.028;exitDx=0;exitDy=0;entryX=0.25;entryY=1;entryDx=0;entryDy=0;exitPerimeter=0;" edge="1" parent="1" source="grHH_3dc-q_dSVZ70AZM-1" target="grHH_3dc-q_dSVZ70AZM-3">
          <mxGeometry relative="1" as="geometry" />
        </mxCell>
        <mxCell id="grHH_3dc-q_dSVZ70AZM-25" style="edgeStyle=orthogonalEdgeStyle;rounded=0;orthogonalLoop=1;jettySize=auto;html=1;exitX=1;exitY=0.75;exitDx=0;exitDy=0;entryX=0;entryY=0.38;entryDx=0;entryDy=0;entryPerimeter=0;" edge="1" parent="1" source="grHH_3dc-q_dSVZ70AZM-3" target="grHH_3dc-q_dSVZ70AZM-7">
          <mxGeometry relative="1" as="geometry" />
        </mxCell>
        <mxCell id="grHH_3dc-q_dSVZ70AZM-27" style="edgeStyle=orthogonalEdgeStyle;rounded=0;orthogonalLoop=1;jettySize=auto;html=1;exitX=0;exitY=0.75;exitDx=0;exitDy=0;entryX=1.015;entryY=0.899;entryDx=0;entryDy=0;entryPerimeter=0;" edge="1" parent="1" source="grHH_3dc-q_dSVZ70AZM-7" target="grHH_3dc-q_dSVZ70AZM-3">
          <mxGeometry relative="1" as="geometry" />
        </mxCell>
        <mxCell id="grHH_3dc-q_dSVZ70AZM-33" style="edgeStyle=orthogonalEdgeStyle;rounded=0;orthogonalLoop=1;jettySize=auto;html=1;exitX=1;exitY=0.25;exitDx=0;exitDy=0;entryX=0.038;entryY=0.209;entryDx=0;entryDy=0;entryPerimeter=0;" edge="1" parent="1" source="grHH_3dc-q_dSVZ70AZM-2" target="grHH_3dc-q_dSVZ70AZM-3">
          <mxGeometry relative="1" as="geometry" />
        </mxCell>
        <mxCell id="grHH_3dc-q_dSVZ70AZM-34" style="edgeStyle=orthogonalEdgeStyle;rounded=0;orthogonalLoop=1;jettySize=auto;html=1;exitX=0;exitY=0.5;exitDx=0;exitDy=0;entryX=1.028;entryY=0.598;entryDx=0;entryDy=0;entryPerimeter=0;" edge="1" parent="1" source="grHH_3dc-q_dSVZ70AZM-3" target="grHH_3dc-q_dSVZ70AZM-2">
          <mxGeometry relative="1" as="geometry" />
        </mxCell>
        <mxCell id="grHH_3dc-q_dSVZ70AZM-38" value="East" style="text;html=1;align=center;verticalAlign=middle;resizable=0;points=[];autosize=1;strokeColor=none;fillColor=none;" vertex="1" parent="1">
          <mxGeometry x="245" y="638" width="50" height="30" as="geometry" />
        </mxCell>
        <mxCell id="grHH_3dc-q_dSVZ70AZM-39" value="West" style="text;html=1;align=center;verticalAlign=middle;resizable=0;points=[];autosize=1;strokeColor=none;fillColor=none;" vertex="1" parent="1">
          <mxGeometry x="245" y="688" width="50" height="30" as="geometry" />
        </mxCell>
        <mxCell id="grHH_3dc-q_dSVZ70AZM-40" value="East" style="text;html=1;align=center;verticalAlign=middle;resizable=0;points=[];autosize=1;strokeColor=none;fillColor=none;" vertex="1" parent="1">
          <mxGeometry x="270" y="350" width="50" height="30" as="geometry" />
        </mxCell>
        <mxCell id="grHH_3dc-q_dSVZ70AZM-41" value="West" style="text;html=1;align=center;verticalAlign=middle;resizable=0;points=[];autosize=1;strokeColor=none;fillColor=none;" vertex="1" parent="1">
          <mxGeometry x="270" y="420" width="50" height="30" as="geometry" />
        </mxCell>
        <mxCell id="grHH_3dc-q_dSVZ70AZM-42" value="East" style="text;html=1;align=center;verticalAlign=middle;resizable=0;points=[];autosize=1;strokeColor=none;fillColor=none;" vertex="1" parent="1">
          <mxGeometry x="440" y="480" width="50" height="30" as="geometry" />
        </mxCell>
        <mxCell id="grHH_3dc-q_dSVZ70AZM-43" value="West" style="text;html=1;align=center;verticalAlign=middle;resizable=0;points=[];autosize=1;strokeColor=none;fillColor=none;" vertex="1" parent="1">
          <mxGeometry x="440" y="520" width="50" height="30" as="geometry" />
        </mxCell>
        <mxCell id="grHH_3dc-q_dSVZ70AZM-44" value="South" style="text;html=1;align=center;verticalAlign=middle;resizable=0;points=[];autosize=1;strokeColor=none;fillColor=none;" vertex="1" parent="1">
          <mxGeometry x="210" y="540" width="60" height="30" as="geometry" />
        </mxCell>
        <mxCell id="grHH_3dc-q_dSVZ70AZM-45" value="North" style="text;html=1;align=center;verticalAlign=middle;resizable=0;points=[];autosize=1;strokeColor=none;fillColor=none;" vertex="1" parent="1">
          <mxGeometry x="140" y="540" width="50" height="30" as="geometry" />
        </mxCell>
        <mxCell id="grHH_3dc-q_dSVZ70AZM-47" value="North" style="text;html=1;align=center;verticalAlign=middle;resizable=0;points=[];autosize=1;strokeColor=none;fillColor=none;" vertex="1" parent="1">
          <mxGeometry x="310" y="280" width="50" height="30" as="geometry" />
        </mxCell>
        <mxCell id="grHH_3dc-q_dSVZ70AZM-48" value="South" style="text;html=1;align=center;verticalAlign=middle;resizable=0;points=[];autosize=1;strokeColor=none;fillColor=none;" vertex="1" parent="1">
          <mxGeometry x="400" y="590" width="60" height="30" as="geometry" />
        </mxCell>
        <mxCell id="grHH_3dc-q_dSVZ70AZM-49" value="North" style="text;html=1;align=center;verticalAlign=middle;resizable=0;points=[];autosize=1;strokeColor=none;fillColor=none;" vertex="1" parent="1">
          <mxGeometry x="310" y="590" width="50" height="30" as="geometry" />
        </mxCell>
        <mxCell id="grHH_3dc-q_dSVZ70AZM-50" value="South" style="text;html=1;align=center;verticalAlign=middle;resizable=0;points=[];autosize=1;strokeColor=none;fillColor=none;" vertex="1" parent="1">
          <mxGeometry x="550" y="590" width="60" height="30" as="geometry" />
        </mxCell>
        <mxCell id="grHH_3dc-q_dSVZ70AZM-51" value="North" style="text;html=1;align=center;verticalAlign=middle;resizable=0;points=[];autosize=1;strokeColor=none;fillColor=none;" vertex="1" parent="1">
          <mxGeometry x="460" y="590" width="50" height="30" as="geometry" />
        </mxCell>
        <mxCell id="grHH_3dc-q_dSVZ70AZM-52" value="South" style="text;html=1;align=center;verticalAlign=middle;resizable=0;points=[];autosize=1;strokeColor=none;fillColor=none;" vertex="1" parent="1">
          <mxGeometry x="550" y="430" width="60" height="30" as="geometry" />
        </mxCell>
        <mxCell id="grHH_3dc-q_dSVZ70AZM-53" value="North" style="text;html=1;align=center;verticalAlign=middle;resizable=0;points=[];autosize=1;strokeColor=none;fillColor=none;" vertex="1" parent="1">
          <mxGeometry x="470" y="430" width="50" height="30" as="geometry" />
        </mxCell>
        <mxCell id="grHH_3dc-q_dSVZ70AZM-54" style="edgeStyle=orthogonalEdgeStyle;rounded=0;orthogonalLoop=1;jettySize=auto;html=1;exitX=0.25;exitY=0;exitDx=0;exitDy=0;entryX=0.691;entryY=1.022;entryDx=0;entryDy=0;entryPerimeter=0;" edge="1" parent="1" source="grHH_3dc-q_dSVZ70AZM-3" target="grHH_3dc-q_dSVZ70AZM-4">
          <mxGeometry relative="1" as="geometry" />
        </mxCell>
        <mxCell id="grHH_3dc-q_dSVZ70AZM-58" value="" style="endArrow=classic;html=1;rounded=0;entryX=0.75;entryY=0;entryDx=0;entryDy=0;exitX=0.895;exitY=0.967;exitDx=0;exitDy=0;exitPerimeter=0;" edge="1" parent="1" source="grHH_3dc-q_dSVZ70AZM-4" target="grHH_3dc-q_dSVZ70AZM-3">
          <mxGeometry width="50" height="50" relative="1" as="geometry">
            <mxPoint x="390" y="320" as="sourcePoint" />
            <mxPoint x="440" y="270" as="targetPoint" />
          </mxGeometry>
        </mxCell>
        <mxCell id="grHH_3dc-q_dSVZ70AZM-59" value="South" style="text;html=1;align=center;verticalAlign=middle;resizable=0;points=[];autosize=1;strokeColor=none;fillColor=none;" vertex="1" parent="1">
          <mxGeometry x="400" y="280" width="60" height="30" as="geometry" />
        </mxCell>
      </root>
    </mxGraphModel>
  </diagram>
</mxfile>
